<svg id="visual" viewBox="0 0 900 600" width="900" height="600" xmlns="http://www.w3.org/2000/svg" xmlns:xlink="http://www.w3.org/1999/xlink" version="1.1"><path d="M0 109L13.7 111C27.3 113 54.7 117 82 117C109.3 117 136.7 113 163.8 103C191 93 218 77 245.2 70C272.3 63 299.7 65 327 70C354.3 75 381.7 83 409 90C436.3 97 463.7 103 491 103C518.3 103 545.7 97 573 98C600.3 99 627.7 107 654.8 104C682 101 709 87 736.2 89C763.3 91 790.7 109 818 105C845.3 101 872.7 75 886.3 62L900 49L900 0L886.3 0C872.7 0 845.3 0 818 0C790.7 0 763.3 0 736.2 0C709 0 682 0 654.8 0C627.7 0 600.3 0 573 0C545.7 0 518.3 0 491 0C463.7 0 436.3 0 409 0C381.7 0 354.3 0 327 0C299.7 0 272.3 0 245.2 0C218 0 191 0 163.8 0C136.7 0 109.3 0 82 0C54.7 0 27.3 0 13.7 0L0 0Z" fill="#2b60b2"></path><path d="M0 163L13.7 170C27.3 177 54.7 191 82 199C109.3 207 136.7 209 163.8 195C191 181 218 151 245.2 144C272.3 137 299.7 153 327 162C354.3 171 381.7 173 409 179C436.3 185 463.7 195 491 189C518.3 183 545.7 161 573 160C600.3 159 627.7 179 654.8 183C682 187 709 175 736.2 170C763.3 165 790.7 167 818 163C845.3 159 872.7 149 886.3 144L900 139L900 47L886.3 60C872.7 73 845.3 99 818 103C790.7 107 763.3 89 736.2 87C709 85 682 99 654.8 102C627.7 105 600.3 97 573 96C545.7 95 518.3 101 491 101C463.7 101 436.3 95 409 88C381.7 81 354.3 73 327 68C299.7 63 272.3 61 245.2 68C218 75 191 91 163.8 101C136.7 111 109.3 115 82 115C54.7 115 27.3 111 13.7 109L0 107Z" fill="#4f8ef0"></path><path d="M0 373L13.7 378C27.3 383 54.7 393 82 395C109.3 397 136.7 391 163.8 382C191 373 218 361 245.2 350C272.3 339 299.7 329 327 332C354.3 335 381.7 351 409 354C436.3 357 463.7 347 491 359C518.3 371 545.7 405 573 414C600.3 423 627.7 407 654.8 403C682 399 709 407 736.2 397C763.3 387 790.7 359 818 332C845.3 305 872.7 279 886.3 266L900 253L900 137L886.3 142C872.7 147 845.3 157 818 161C790.7 165 763.3 163 736.2 168C709 173 682 185 654.8 181C627.7 177 600.3 157 573 158C545.7 159 518.3 181 491 187C463.7 193 436.3 183 409 177C381.7 171 354.3 169 327 160C299.7 151 272.3 135 245.2 142C218 149 191 179 163.8 193C136.7 207 109.3 205 82 197C54.7 189 27.3 175 13.7 168L0 161Z" fill="#7cabf6"></path><path d="M0 505L13.7 498C27.3 491 54.7 477 82 485C109.3 493 136.7 523 163.8 525C191 527 218 501 245.2 485C272.3 469 299.7 463 327 474C354.3 485 381.7 513 409 517C436.3 521 463.7 501 491 500C518.3 499 545.7 517 573 525C600.3 533 627.7 531 654.8 524C682 517 709 505 736.2 505C763.3 505 790.7 517 818 525C845.3 533 872.7 537 886.3 539L900 541L900 251L886.3 264C872.7 277 845.3 303 818 330C790.7 357 763.3 385 736.2 395C709 405 682 397 654.8 401C627.7 405 600.3 421 573 412C545.7 403 518.3 369 491 357C463.7 345 436.3 355 409 352C381.7 349 354.3 333 327 330C299.7 327 272.3 337 245.2 348C218 359 191 371 163.8 380C136.7 389 109.3 395 82 393C54.7 391 27.3 381 13.7 376L0 371Z" fill="#4f8ef0"></path><path d="M0 601L13.7 601C27.3 601 54.7 601 82 601C109.3 601 136.7 601 163.8 601C191 601 218 601 245.2 601C272.3 601 299.7 601 327 601C354.3 601 381.7 601 409 601C436.3 601 463.7 601 491 601C518.3 601 545.7 601 573 601C600.3 601 627.7 601 654.8 601C682 601 709 601 736.2 601C763.3 601 790.7 601 818 601C845.3 601 872.7 601 886.3 601L900 601L900 539L886.3 537C872.7 535 845.3 531 818 523C790.7 515 763.3 503 736.2 503C709 503 682 515 654.8 522C627.7 529 600.3 531 573 523C545.7 515 518.3 497 491 498C463.7 499 436.3 519 409 515C381.7 511 354.3 483 327 472C299.7 461 272.3 467 245.2 483C218 499 191 525 163.8 523C136.7 521 109.3 491 82 483C54.7 475 27.3 489 13.7 496L0 503Z" fill="#2b60b2"></path></svg>